<svg xmlns="http://www.w3.org/2000/svg" viewBox="0 0 64 64" fill="none">
  <!-- Background: Professional Admin Blue -->
  <rect x="0" y="0" width="64" height="64" rx="16" fill="#ffff00"/>
  
  <!-- Icon: Gear / Settings -->
  <path fill="white" d="M32 18C33.1 18 34 18.9 34 20V22.1C34.66 22.34 35.29 22.67 35.88 23.06L37.5 21.6C38.28 20.9 39.42 21 40.1 21.7L42.3 23.9C43 24.58 43.1 25.72 42.4 26.5L40.94 28.12C41.33 28.71 41.66 29.34 41.9 30H44C45.1 30 46 30.9 46 32C46 33.1 45.1 34 44 34H41.9C41.66 34.66 41.33 35.29 40.94 35.88L42.4 37.5C43.1 38.28 43 39.42 42.3 40.1L40.1 42.3C39.42 43 38.28 43.1 37.5 42.4L35.88 40.94C35.29 41.33 34.66 41.66 34 41.9V44C34 45.1 33.1 46 32 46C30.9 46 30 45.1 30 44V41.9C29.34 41.66 28.71 41.33 28.12 40.94L26.5 42.4C25.72 43.1 24.58 43 23.9 42.3L21.7 40.1C21 39.42 20.9 38.28 21.6 37.5L23.06 35.88C22.67 35.29 22.34 34.66 22.1 34H20C18.9 34 18 33.1 18 32C18 30.9 18.9 30 20 30H22.1C22.34 29.34 22.67 28.71 23.06 28.12L21.6 26.5C20.9 25.72 21 24.58 21.7 23.9L23.9 21.7C24.58 21 25.72 20.9 26.5 21.6L28.12 23.06C28.71 22.67 29.34 22.34 30 22.1V20C30 18.9 30.9 18 32 18ZM32 26C28.69 26 26 28.69 26 32C26 35.31 28.69 38 32 38C35.31 38 38 35.31 38 32C38 28.69 35.31 26 32 26Z" />
</svg>